<svg width="24" height="24" viewBox="0 0 24 24" fill="none" xmlns="http://www.w3.org/2000/svg">
<path d="M15.5 12.2C15.2 12.1 14.9 12 14.7 12H12V11H15C15 10.4 14.6 10 14 10H10C10 10.6 10.4 11 11 11V12C10.5 12 10 11.8 9.8 11.4L8.7 9.6C8.4 9.2 8 9 7.6 9H7V8.3C7 8 6.9 7.8 6.8 7.5L6.5 6.8C6.2 6.3 5.6 6 5 6H4L9 13C9.4 13.6 10.1 14 10.8 14H12V15H11V17H10.4C9.5 17 8.6 17.4 8 18H7V19H18V18H17C16.4 17.4 15.5 17 14.6 17H14V15H13V14H14.6C14.8 14 15.1 14.1 15.3 14.2L17 15.1C17.9 15.6 19 15.6 19.9 15.1H20L15.5 12.2Z" fill="#1C2E45" fill-opacity="0.6"/>
</svg>
