<svg width="24" height="24" viewBox="0 0 24 24" fill="none" xmlns="http://www.w3.org/2000/svg">
<path d="M9.7 19.2C10 19.5 10.7 20 11.5 20C14.2 20 14.8 18 14.9 16.4C15.1 14.1 15.7 14.2 16 14.2C16.7 14.2 16.9 14.6 16.9 15.3C16.3 15.7 15.9 16.3 15.9 17C15.9 18.1 16.8 19 17.9 19C19 19 19.9 18.1 19.9 17C19.9 15.9 19 15 17.9 15C17.8 15 17.8 15 17.7 15C17.5 14.1 17 13.2 15.9 13.2C14.3 13.2 13.9 14.6 13.8 16.1C13.7 18.2 13 19 11.5 19C11.1 19 10.7 18.8 10.5 18.6C9.9 18.1 10 16.3 10 16.3C12 16.3 14 14.5 14.7 11.5L14.5 11.4C14.8 10.2 15 8.8 15 7.8C15 6.7 14.7 5.9 14 5.3C13.3 4.7 12.5 4.5 11.9 4.5C11.7 4.2 11.4 4 11 4C10.5 4 10 4.4 10 5C10 5.6 10.4 6 11 6C11.4 6 11.7 5.8 11.8 5.5C12.3 5.5 12.8 5.7 13.3 6.1C13.8 6.5 14 7 14 7.8C14 8.7 13.8 10 13.5 11.3L13.3 11.2C13 12.3 12 14.8 10 14.8H9C7 14.8 6 12.3 5.7 11.2L5.5 11.3C5.2 10 5 8.7 5 7.8C5 7 5.2 6.5 5.7 6.1C6.1 5.7 6.7 5.6 7.2 5.5C7.3 5.8 7.6 6 8 6C8.6 6 9 5.6 9 5C9 4.4 8.6 4 8 4C7.6 4 7.3 4.2 7.1 4.5C6.5 4.5 5.7 4.7 5 5.3C4.3 5.9 4 6.7 4 7.8C4 8.8 4.2 10.2 4.5 11.5L4.3 11.6C5 14.5 7 16.3 9 16.3C9 16.3 8.9 18.5 9.7 19.2ZM18 18C17.4 18 17 17.6 17 17C17 16.4 17.4 16 18 16C18.6 16 19 16.4 19 17C19 17.6 18.5 18 18 18Z" fill="#1C2E45" fill-opacity="0.6"/>
</svg>
