<svg width="24" height="24" viewBox="0 0 24 24" fill="none" xmlns="http://www.w3.org/2000/svg">
<path d="M12.6 10.8C12.5 10.8 12.5 10.7 12.4 10.7V7.6C13.6 7.7 14.6 8.2 14.6 8.2L15.5 6.4C15.4 6.4 14 5.6 12.4 5.6V4H11.4V5.6C10.6 5.8 10 6.1 9.4 6.5C8.8 7.1 8.4 7.9 8.4 8.8C8.4 9.5 8.6 11.1 11.4 12.4V16.3C10.5 16.1 9.4 15.6 9 15.4L8 17.1C8.2 17.2 9.8 18.1 11.4 18.3V20H12.4V18.3C14.7 18 16 16.2 16 14.5C16 13 15 11.8 12.6 10.8ZM11.4 10.2C10.6 9.7 10.4 9.2 10.4 8.9C10.4 8.5 10.5 8.2 10.8 8C11 7.9 11.2 7.8 11.4 7.7V10.2ZM12.4 16.3V12.9C13.5 13.4 14 14 14 14.5C14 15.1 13.7 16.1 12.4 16.3Z" fill="#1C2E45" fill-opacity="0.6"/>
</svg>
